<?xml version="1.0" standalone="no"?><svg xmlns="http://www.w3.org/2000/svg" viewBox="0 0 1440 320"><path fill="#00cba0" fill-opacity="1" d="M0,64L10.9,64C21.8,64,44,64,65,80C87.3,96,109,128,131,144C152.7,160,175,160,196,165.3C218.2,171,240,181,262,181.3C283.6,181,305,171,327,149.3C349.1,128,371,96,393,74.7C414.5,53,436,43,458,58.7C480,75,502,117,524,133.3C545.5,149,567,139,589,128C610.9,117,633,107,655,96C676.4,85,698,75,720,85.3C741.8,96,764,128,785,117.3C807.3,107,829,53,851,80C872.7,107,895,213,916,256C938.2,299,960,277,982,272C1003.6,267,1025,277,1047,250.7C1069.1,224,1091,160,1113,138.7C1134.5,117,1156,139,1178,160C1200,181,1222,203,1244,213.3C1265.5,224,1287,224,1309,208C1330.9,192,1353,160,1375,128C1396.4,96,1418,64,1429,48L1440,32L1440,320L1429.1,320C1418.2,320,1396,320,1375,320C1352.7,320,1331,320,1309,320C1287.3,320,1265,320,1244,320C1221.8,320,1200,320,1178,320C1156.4,320,1135,320,1113,320C1090.9,320,1069,320,1047,320C1025.5,320,1004,320,982,320C960,320,938,320,916,320C894.5,320,873,320,851,320C829.1,320,807,320,785,320C763.6,320,742,320,720,320C698.2,320,676,320,655,320C632.7,320,611,320,589,320C567.3,320,545,320,524,320C501.8,320,480,320,458,320C436.4,320,415,320,393,320C370.9,320,349,320,327,320C305.5,320,284,320,262,320C240,320,218,320,196,320C174.5,320,153,320,131,320C109.1,320,87,320,65,320C43.6,320,22,320,11,320L0,320Z"></path></svg>